<svg xmlns="http://www.w3.org/2000/svg" xmlns:xlink="http://www.w3.org/1999/xlink" xmlns:inkscape="http://www.inkscape.org/namespaces/inkscape" version="1.1" width="1148.7827" height="585.2503" viewBox="0 0 1148.7827 585.2503">
<g inkscape:groupmode="layer" inkscape:label="Layer 1">
<path transform="matrix(1,0,0,-1,0,585.2503)" d="M835.1892 493.05265 852.47689 466.13829C853.2716 464.901 854.6411 464.15296 856.11166 464.15296H901.8943C904.28018 464.15296 906.2143 466.0871 906.2143 468.47297V523.97286C906.2143 524.7946 905.97988 525.5994 905.5386 526.29269L869.2814 583.2502C868.48837 584.496 867.1139 585.2503 865.6371 585.2503H757.52267C755.1368 585.2503 753.20266 583.3162 753.20266 580.93038V497.37266C753.20266 494.9868 755.1368 493.05265 757.52267 493.05265H835.1892Z" fill="#ff7f00" fill-rule="evenodd"/>
<path transform="matrix(1,0,0,-1,0,585.2503)" d="M752.10977 439.49559V580.93038C752.10977 583.3162 750.1756 585.2503 747.78976 585.2503H721.4731C719.9854 585.2503 718.6024 584.48489 717.81246 583.2243L681.1356 524.6962C680.70108 524.0028 680.4724 523.2002 680.4763 522.3819L681.01699 407.7194C681.0209 406.89076 681.263 406.08076 681.71456 405.38594L717.97836 349.57817C718.7752 348.3519 720.1383 347.612 721.60079 347.612H835.1214V205.23488C835.1214 202.84902 837.0555 200.91489 839.4414 200.91489H865.4878C866.9514 200.91489 868.3155 201.65596 869.112 202.88384L905.5185 259.00569C905.9726 259.70573 906.2143 260.5223 906.2143 261.35673V377.7972C906.2143 378.6119 905.9839 379.41 905.54977 380.09938L869.4135 437.47773C868.62258 438.73365 867.24227 439.49559 865.75808 439.49559H752.10977Z" fill="#ff7f00" fill-rule="evenodd"/>
<path transform="matrix(1,0,0,-1,0,585.2503)" d="M752.6232 292.1702 735.13058 320.28834C734.34207 321.55577 732.95516 322.32637 731.46249 322.32637H684.79629C682.4104 322.32637 680.47628 320.3922 680.47628 318.00636L680.4888 263.10157C680.5046 261.3869 680.9266 260.28816 681.77316 258.99964 693.47238 240.28485 705.59017 221.83499 718.1174 203.66403 719.222 202.07402 720.6971 200.98055 722.7348 200.93859L830.24819 200.91489C832.6344 200.91436 834.56918 202.84865 834.56918 205.23488V287.8502C834.56918 290.23606 832.635 292.1702 830.24917 292.1702H752.6232Z" fill="#ff7f00" fill-rule="evenodd"/>
<path transform="matrix(1,0,0,-1,0,585.2503)" d="M248.89194 510.83763C248.97794 534.16348 249.3646 557.4872 250.05182 580.80307 250.12212 583.18789 248.2458 585.17819 245.86098 585.2485 245.81856 585.2497 245.77614 585.2503 245.7337 585.2503H183.55118C181.16532 585.2503 179.23117 583.3162 179.23117 580.93038V497.37266C179.23117 494.9868 181.16532 493.05265 183.55118 493.05265H244.66407C247.04993 493.05265 248.98406 494.9868 248.98406 497.37266 248.98406 497.3825 248.98403 497.39237 248.98397 497.40223L248.89194 510.83763Z" fill="#ff7f00" fill-rule="evenodd"/>
<path transform="matrix(1,0,0,-1,0,585.2503)" d="M321.9691 493.05265H389.02378C391.40968 493.05265 393.34379 494.9868 393.34379 497.37266V580.93038C393.34379 583.3162 391.40968 585.2503 389.02378 585.2503H254.92588C252.54 585.2503 250.60587 583.3162 250.60587 580.93038V205.23488C250.60587 202.84902 252.54 200.91489 254.92588 200.91489H317.6491C320.03498 200.91489 321.9691 202.84902 321.9691 205.23488V493.05265Z" fill="#ff7f00" fill-rule="evenodd"/>
<path transform="matrix(1,0,0,-1,0,585.2503)" d="M487.42866 205.23488V580.93038C487.42866 583.3162 485.4945 585.2503 483.10865 585.2503H420.3854C417.99955 585.2503 416.0654 583.3162 416.0654 580.93038V205.23488C416.0654 202.84902 417.99955 200.91489 420.3854 200.91489H483.10865C485.4945 200.91489 487.42866 202.84902 487.42866 205.23488Z" fill="#ff7f00" fill-rule="evenodd"/>
<path transform="matrix(1,0,0,-1,0,585.2503)" d="M569.89956 493.05265V439.49559H492.84156C490.4557 439.49559 488.52156 437.56144 488.52156 435.17558V351.932C488.52156 349.54615 490.4557 347.612 492.84156 347.612H569.89956V292.15354L492.82487 291.85603C490.44554 291.84684 488.52156 289.9154 488.52156 287.53608V205.23488C488.52156 202.84879 490.45603 200.91457 492.84214 200.91489L600.5367 200.92932C602.2894 200.92955 604.0094 201.91277 604.9813 203.34729L635.4033 250.2452 640.33346 258.23066C641.3314 259.99757 641.5767 261.81654 641.5331 263.7455V350.10203C641.5645 352.0356 641.29049 353.84068 640.4698 355.60487 639.66256 357.31169 638.7537 358.96858 637.74819 360.5666 631.16256 371.58879 624.4798 382.55268 617.70077 393.45704 624.0513 403.64784 630.3265 413.88539 636.5258 424.16886 637.9048 426.3958 639.1919 428.6783 640.3839 431.01069 641.2691 432.77177 641.56759 434.7468 641.5331 436.6979L641.52359 521.9793C641.5354 523.6536 641.19528 525.50607 640.34 526.9843L635.1947 535.25 604.91067 581.8048C603.7725 583.3221 602.5142 584.242 600.4995 584.2837L492.65977 584.3079C490.2739 584.3085 488.33934 582.3748 488.3388 579.9889 488.3388 579.9854 488.3388 579.9819 488.3388 579.97836L488.52265 497.36305C488.52796 494.98094 490.4605 493.05265 492.84263 493.05265H569.89956Z" fill="#ff7f00" fill-rule="evenodd"/>
<path transform="matrix(1,0,0,-1,0,585.2503)" d="M244.66407 497.37266H183.55118V580.93038H245.7337C245.7337 580.93038 244.49301 539.11227 244.57189 510.83076 244.59079 504.05058 244.66407 497.37266 244.66407 497.37266Z" fill-rule="evenodd"/>
<path transform="matrix(1,0,0,-1,0,585.2503)" d="M317.6491 205.23488H254.92588V580.93038H389.02378V497.37266H317.6491V205.23488Z" fill-rule="evenodd"/>
<path transform="matrix(1,0,0,-1,0,585.2503)" d="M483.10865 205.23488H420.3854V580.93038H483.10865V205.23488Z" fill-rule="evenodd"/>
<path transform="matrix(1,0,0,-1,0,585.2503)" d="M901.8943 377.7972V261.35673L865.4878 205.23488H839.4414V351.932H721.60079L685.3369 407.73976 684.79629 522.4023 721.4731 580.93038H747.78976V435.17558H865.75808L901.8943 377.7972Z" fill-rule="evenodd"/>
<path transform="matrix(1,0,0,-1,0,585.2503)" d="M901.8943 523.97286V468.47297H856.11166L837.5488 497.37266H757.52267V580.93038H865.6371L901.8943 523.97286Z" fill-rule="evenodd"/>
<path transform="matrix(1,0,0,-1,0,585.2503)" d="M637.2131 521.6924V436.6143C637.2131 435.59654 637.19839 435.39714 637.0653 434.6205 636.9667 434.0444 636.7692 433.5308 636.53726 432.9767 635.0354 429.39079 612.6104 393.45957 612.6104 393.45957 612.6104 393.45957 635.0238 357.43205 636.53726 353.81678 636.76907 353.26274 636.9667 352.74906 637.0653 352.17295 637.19839 351.3963 637.2131 351.19694 637.2131 350.1792V263.63728C637.2131 262.61955 637.1967 262.42668 637.04916 261.7085 636.93966 261.17579 636.7222 260.69657 636.49209 260.20704 635.39907 257.88105 613.3379 224.10414 601.66348 206.13742 601.13558 205.32512 600.9796 205.23488 600.10366 205.23488H492.84156V287.53608L574.21957 287.8502V351.932H492.84156V435.17558H574.21957V497.37266H492.84263L492.65879 579.988H599.9776C600.8536 579.988 601.00967 579.89779 601.5384 579.0863 613.3146 561.01467 635.8183 526.6516 636.67239 524.70169 636.8476 524.30166 637.0154 523.9062 637.0946 523.47268 637.2012 522.8882 637.2131 522.7101 637.2131 521.6924Z" fill-rule="evenodd"/>
<path transform="matrix(1,0,0,-1,0,585.2503)" d="M721.674 206.11605C707.9424 225.94776 699.3271 239.41548 685.3741 261.38914 684.854 262.20814 684.79629 262.4122 684.79629 263.43V318.00636H731.46249L750.22299 287.8502H830.24917V205.23488H723.2574C722.3814 205.23488 722.2231 205.323 721.674 206.11605Z" fill-rule="evenodd"/>
<path transform="matrix(1,0,0,-1,0,585.2503)" d="M914.81777 230.57625V206.8663C914.81777 206.07102 915.46249 205.4263 916.25778 205.4263H922.8312C923.62649 205.4263 924.2712 206.07102 924.2712 206.8663V230.57625H932.4052C933.2005 230.57625 933.8452 231.22095 933.8452 232.01624V237.73215C933.8452 238.52744 933.2005 239.17215 932.4052 239.17215H906.68368C905.88839 239.17215 905.24368 238.52744 905.24368 237.73215V232.01624C905.24368 231.22095 905.88839 230.57625 906.68368 230.57625H914.81777Z" fill="#ff7f00" fill-rule="evenodd"/>
<path transform="matrix(1,0,0,-1,0,585.2503)" d="M951.5208 221.88047C949.68826 227.38785 947.71646 232.84793 945.6073 238.25542 945.39169 238.80821 944.8591 239.17215 944.26577 239.17215H935.5489C934.7536 239.17215 934.1089 238.52744 934.1089 237.73215V206.8663C934.1089 206.07102 934.7536 205.4263 935.5489 205.4263H942.12228C942.91757 205.4263 943.56228 206.07102 943.56228 206.8663V218.5117L947.91159 206.38033C948.1167 205.80808 948.6591 205.4263 949.2671 205.4263H953.7454C954.35269 205.4263 954.89468 205.8072 955.1003 206.37854L959.40176 218.32695V206.8663C959.40176 206.07102 960.04647 205.4263 960.84176 205.4263H967.41506C968.2103 205.4263 968.85507 206.07102 968.85507 206.8663V237.73215C968.85507 238.52744 968.2103 239.17215 967.41506 239.17215H958.79269C958.1864 239.17215 957.64517 238.79247 957.4387 238.22246L951.5208 221.88047Z" fill="#ff7f00" fill-rule="evenodd"/>
<path transform="matrix(1,0,0,-1,0,585.2503)" d="M932.4052 232.01624V237.73215H906.68368V232.01624H916.25778V206.8663H922.8312V232.01624H932.4052Z" fill-rule="evenodd"/>
<path transform="matrix(1,0,0,-1,0,585.2503)" d="M951.4025 217.32463C951.4025 217.32463 950.8942 219.08499 950.3388 220.87023 948.38729 227.14267 944.26577 237.73215 944.26577 237.73215H935.5489V206.8663H942.12228V226.79515L949.2671 206.8663H953.7454L960.84176 226.57822V206.8663H967.41506V237.73215H958.79269L951.4025 217.32463Z" fill-rule="evenodd"/>
<path transform="matrix(1,0,0,-1,0,585.2503)" d="M496.46318 62.03276C497.1471 61.208097 498.16279 60.730909 499.23417 60.730909H501.26045V26.561083H499.23417C497.24595 26.561083 495.63417 24.949307 495.63417 22.961083V13.032326C495.63417 11.044101 497.24595 9.432326 499.23417 9.432326H526.1245C528.11276 9.432326 529.72457 11.044101 529.72457 13.032326V22.961083C529.72457 26.190133 526.777 26.561083 524.181 26.561083V60.730909H526.1245C528.11276 60.730909 529.72457 62.34268 529.72457 64.33091V74.259677C529.72457 76.247898 528.11276 77.85967 526.1245 77.85967H499.23417C496.7706 77.85967 495.63417 75.877079 495.63417 73.66195 495.5629 73.74787 495.48768 73.830448 495.40876 73.909389L492.51289 76.80526C491.10697 78.21114 435.79145 78.21114 434.38557 76.80526L431.92527 74.34495C431.87895 76.2994 430.28126 77.85967 428.32627 77.85967H404.08357C402.09535 77.85967 400.48356 76.247898 400.48356 74.259677V64.33091C400.48356 61.3099 403.11607 60.730909 405.61338 60.730909V27.017178L405.1573 26.561083H388.94398L388.4879 27.017163V60.730909H390.0178C392.00605 60.730909 393.6178 62.34268 393.6178 64.33091V74.259677C393.6178 76.247898 392.00605 77.85967 390.0178 77.85967H363.6238C361.6356 77.85967 360.0238 76.247898 360.0238 74.259677V64.33091C360.0238 61.101858 362.97138 60.730909 365.56736 60.730909V21.306292C365.56736 20.35151 365.94664 19.435835 366.62178 18.760703L374.89576 10.486738C376.25523 9.127288 411.33573 9.432326 414.5914 9.432326 416.4177 9.432326 423.51509 16.864796 425.41099 18.760703 426.7728 20.122502 426.4654 57.45485 426.4654 60.730909H428.32627C429.08357 60.730909 429.82154 60.969717 430.43528 61.41336V51.092569C430.43528 49.104345 432.04707 47.49257 434.03529 47.49257H444.9569C446.94514 47.49257 448.55693 49.104345 448.55693 51.092569V60.234479H452.03034V26.561083H447.5219C445.53367 26.561083 443.9219 24.949307 443.9219 22.961083V13.032326C443.9219 11.044101 445.53367 9.432326 447.5219 9.432326H479.54216C481.5304 9.432326 483.14216 11.044101 483.14216 13.032326V22.961083C483.14216 27.535376 477.7132 26.561083 474.9509 26.561083V60.234479H478.34153V51.092569C478.34153 49.104345 479.95329 47.49257 481.9415 47.49257H492.86317C494.85139 47.49257 496.46318 49.104345 496.46318 51.092569V62.03276Z" fill="#ff7f00" fill-rule="evenodd"/>
<path transform="matrix(1,0,0,-1,0,585.2503)" d="M525.7936 130.22235C525.1105 131.07782 524.0752 131.57596 522.9804 131.57596H521.40097L509.15193 174.87642C508.98197 175.47714 508.65873 176.02336 508.21394 176.46144L502.75306 181.83951C501.42933 183.14319 483.4942 182.87456 480.53498 182.87456 478.75688 182.87456 474.2302 178.06092 472.5286 176.35932 471.6502 175.48093 460.28324 133.78032 459.67445 131.57596H457.69889C455.71064 131.57596 454.09889 129.96419 454.09889 127.97597V118.047199C454.09889 116.058979 455.71064 114.4472 457.69889 114.4472H482.60346C484.59169 114.4472 486.20344 116.058979 486.20344 118.047199V127.97597C486.20344 130.69806 483.9523 131.57596 481.60575 131.57596L482.42485 134.80117H496.97328L497.84358 131.57596H496.83467C494.84645 131.57596 493.23469 129.96419 493.23469 127.97597V118.047199C493.23469 116.058979 494.84645 114.4472 496.83467 114.4472H522.9804C524.0752 114.4472 525.1105 114.94534 525.7936 115.800807 526.4767 114.94534 527.51199 114.4472 528.6067 114.4472H552.353C554.34127 114.4472 555.95309 116.058979 555.95309 118.047199V127.97597C555.95309 131.32236 552.8088 131.57596 550.1612 131.57596V153.24282L565.47146 120.33466 566.3758 119.13444 570.761 115.32841C572.1558 114.117809 589.76046 114.17266 591.0923 115.37886L595.47756 119.35037C597.0077 120.736209 596.66098 162.26155 596.66098 165.74578H598.77C599.98959 165.74578 601.12619 166.3632 601.79 167.38628 603.0469 165.44915 604.86837 165.74578 606.75357 165.74578V131.57596H604.81C602.8218 131.57596 601.20999 129.96419 601.20999 127.97597V118.047199C601.20999 116.058979 602.8218 114.4472 604.81 114.4472H657.8461C658.8009 114.4472 659.71658 114.826488 660.3917 115.50161L668.6657 123.77559C670.0321 125.14199 669.7201 167.68444 669.7201 171.00061 669.7201 171.95539 669.3408 172.87107 668.6657 173.5462L660.3917 181.82016C659.01968 183.19217 608.17538 182.87456 604.81 182.87456 603.59048 182.87456 602.4538 182.25714 601.79 181.23407 601.12619 182.25714 599.98959 182.87456 598.77 182.87456H575.60287C573.6146 182.87456 572.00289 181.26279 572.00289 179.27457V169.34578C572.00289 166.32474 574.63546 165.74578 577.13278 165.74578V144.89044L561.6569 178.14577 560.6419 179.43799 557.33236 182.08568C556.06857 183.09676 531.3635 182.87456 528.6067 182.87456 526.61849 182.87456 525.0067 181.26279 525.0067 179.27457V169.34578C525.0067 166.07704 528.0192 165.74578 530.63308 165.74578V131.57596H528.6067C527.51199 131.57596 526.4767 131.07782 525.7936 130.22235ZM492.71989 150.68883H486.50016L489.5409 162.52933 492.71989 150.68883ZM646.79959 165.2897V132.03206L646.34347 131.57596H629.6741V165.74578H646.34347L646.79959 165.2897Z" fill="#ff7f00" fill-rule="evenodd"/>
<path transform="matrix(1,0,0,-1,0,585.2503)" d="M771.4071 128.08481C771.4071 148.64167 771.0278 144.65682 770.35269 145.33194L766.4446 149.24005 770.35269 153.14817C771.75857 154.55405 771.75857 172.14029 770.35269 173.54619L762.07876 181.82015C760.7082 183.19074 712.2492 182.87456 708.8965 182.87456 706.9082 182.87456 705.29647 181.26279 705.29647 179.27457V169.34578C705.29647 166.07704 708.30899 165.74578 710.9228 165.74578V131.57596H708.8965C706.9082 131.57596 705.29647 129.96419 705.29647 127.97597V118.047199C705.29647 116.058979 706.9082 114.4472 708.8965 114.4472H759.53317C760.4879 114.4472 761.4036 114.826488 762.07876 115.501628L770.35269 123.7756C771.00119 124.424098 771.3777 125.29565 771.40548 126.21233V118.047199C771.40548 116.058979 773.0172 114.4472 775.00546 114.4472H799.9101C801.8983 114.4472 803.5101 116.058979 803.5101 118.047199V127.97597C803.5101 130.69806 801.2589 131.57596 798.91238 131.57596L799.73147 134.80117H814.27987L815.15017 131.57596H814.1413C812.1531 131.57596 810.5413 129.96419 810.5413 127.97597V118.047199C810.5413 116.058979 812.1531 114.4472 814.1413 114.4472H840.28707C841.38186 114.4472 842.4171 114.94536 843.1002 115.80085 843.7834 114.94536 844.81869 114.4472 845.9134 114.4472H871.9764C873.9646 114.4472 875.57638 116.058979 875.57638 118.047199V127.97597C875.57638 130.7684 873.2427 131.57596 870.86019 131.57596V138.27623H883.6967L884.8415 137.10213V122.34966C884.8415 121.394878 885.22079 120.4792 885.8959 119.80407L890.19839 115.50161C891.5144 114.18558 906.3237 114.4472 909.20919 114.4472 910.73287 114.4472 912.0915 115.406398 912.6015 116.842159 913.1115 115.406398 914.47018 114.4472 915.99386 114.4472H942.0569C944.0451 114.4472 945.65689 116.058979 945.65689 118.047199V127.97597C945.65689 130.7684 943.3231 131.57596 940.9407 131.57596V138.27623H953.7773L954.92208 137.10213V122.34966C954.92208 121.394878 955.30136 120.4792 955.97647 119.80407L960.27896 115.50161C961.595 114.18558 976.4043 114.4472 979.28976 114.4472 980.77017 114.4472 982.0997 115.353488 982.6407 116.73148 983.18179 115.353488 984.5112 114.4472 985.99166 114.4472H1012.8821C1014.8703 114.4472 1016.4821 116.058979 1016.4821 118.047199V127.97597C1016.4821 131.20505 1013.5345 131.57596 1010.9385 131.57596V165.74578H1012.8821C1014.8703 165.74578 1016.4821 167.35756 1016.4821 169.34578V179.27457C1016.4821 181.26279 1014.8703 182.87456 1012.8821 182.87456H985.99166C984.0034 182.87456 982.39169 181.26279 982.39169 179.27457V169.34578C982.39169 166.0771 985.40408 165.74578 988.0178 165.74578V131.57596H985.99166C984.5112 131.57596 983.18179 130.66968 982.6407 129.29169 981.80258 131.42639 979.96658 131.57596 977.8426 131.57596V140.05597C977.8426 141.01074 977.4633 141.92642 976.7882 142.60155L972.88009 146.50965 976.7882 150.41776C978.1941 151.82364 978.1941 172.14032 976.7882 173.5462L968.51419 181.82016C967.14407 183.1903 919.3429 182.87456 915.99386 182.87456 914.0056 182.87456 912.39389 181.26279 912.39389 179.27457V169.34578C912.39389 166.07704 915.4064 165.74578 918.0202 165.74578V131.57596H915.99386C914.47018 131.57596 913.1115 130.61678 912.6015 129.18102 911.815 131.3951 909.91976 131.57596 907.762 131.57596V140.05597C907.762 141.01074 907.38278 141.92642 906.70767 142.60155L902.7995 146.50965 906.70767 150.41776C908.1135 151.82364 908.1135 172.14029 906.70767 173.54619L898.4337 181.82015C897.06356 183.1903 849.26248 182.87456 845.9134 182.87456 843.9252 182.87456 842.3134 181.26279 842.3134 179.27457V169.34578C842.3134 166.0771 845.3258 165.74578 847.93966 165.74578V131.57596H845.9134C844.81869 131.57596 843.7834 131.0778 843.1002 130.2223 841.94619 131.66756 840.5493 131.57596 838.70748 131.57596L826.45858 174.8764C826.28866 175.47714 825.9654 176.02336 825.52059 176.46144L820.0597 181.83951C818.73599 183.14319 800.80087 182.87456 797.8416 182.87456 796.0635 182.87456 791.5368 178.06092 789.83529 176.35932 788.95687 175.48093 777.58987 133.78032 776.9811 131.57596 774.39767 131.57596 771.50326 131.26355 771.4071 128.08481ZM748.4866 165.75257V158.70172L747.3958 157.63898H733.8433V166.24225H747.98117L748.4866 165.75257ZM748.4866 140.38504V131.5692L747.98117 131.07953H733.8433V141.50308H747.3685L748.4866 140.38504ZM940.9407 165.74578H954.46597L954.92208 165.2897V156.35755L953.8867 155.32225H940.9407V165.74578ZM870.86019 165.74578H884.3855L884.8415 165.28977V156.3575L883.8062 155.32225H870.86019V165.74578ZM810.0265 150.68883H803.80679L806.8475 162.52925 810.0265 150.68883Z" fill="#ff7f00" fill-rule="evenodd"/>
<path transform="matrix(1,0,0,-1,0,585.2503)" d="M205.09459 115.80083C205.77771 114.94535 206.81299 114.4472 207.90775 114.4472H236.45294C238.44116 114.4472 240.05294 116.058979 240.05294 118.047199V127.97597C240.05294 132.33956 235.5612 131.57596 232.85459 131.57596V139.18636H248.86389C250.85211 139.18636 252.46389 140.79814 252.46389 142.78636V152.2187C252.46389 154.20693 250.85211 155.8187 248.86389 155.8187H232.85459V166.24225H244.43648V159.66526C244.43648 157.67704 246.04825 156.06526 248.03647 156.06526H260.03373C262.02195 156.06526 263.63374 157.67704 263.63374 159.66526V176.3787C263.63374 177.33347 263.25444 178.24915 262.5793 178.92427L259.68345 181.82015C258.31376 183.18982 211.25255 182.87456 207.90775 182.87456 205.91951 182.87456 204.30774 181.26279 204.30774 179.27457V169.34578C204.30774 166.07706 207.32024 165.74578 209.93405 165.74578V131.57596H207.90775C206.81299 131.57596 205.77771 131.0778 205.09459 130.22234 203.94055 131.66756 202.54367 131.57596 200.70189 131.57596L188.45296 174.8764C188.28302 175.47714 187.95978 176.02336 187.51497 176.46143L182.05416 181.83951C180.73041 183.14319 162.79524 182.87456 159.83602 182.87456 158.0579 182.87456 153.5312 178.06092 151.82962 176.35933 151.38938 175.9191 151.07085 175.37221 150.9051 174.7721L138.97548 131.57596H136.99988C136.11461 131.57596 135.26039 131.24979 134.60044 130.65975 133.3874 131.74425 132.17983 131.57596 130.75386 131.57596V140.05597C130.75386 141.79283 127.331157 144.96984 125.79133 146.50965L129.69945 150.41774C131.10533 151.82363 131.10535 172.1403 129.69945 173.5462L121.42545 181.82016C120.05529 183.1903 72.25414 182.87456 68.9051 182.87456 66.371089 182.87456 65.3051 180.824 65.3051 178.57334 65.12374 178.80916 62.471727 181.44954 62.1011 181.82016 60.695215 183.22603 5.37972 183.22603 3.973834 181.82016L1.07794 178.92429C-.251296 177.59505 .023517 159.10396 .023517 156.10746 .023517 154.11923 1.635292 152.50745 3.623517 152.50745H14.545142C16.533368 152.50745 18.145142 154.11923 18.145142 156.10746V165.24935H21.618563V131.57596H17.110072C15.121846 131.57596 13.510071 129.96419 13.510071 127.97597V118.047199C13.510071 116.058979 15.121846 114.4472 17.110072 114.4472H49.13033C51.118555 114.4472 52.730329 116.058979 52.730329 118.047199V127.97597C52.730329 132.55025 47.30138 131.57596 44.539098 131.57596V165.24935H47.929758V156.10746C47.929758 154.11923 49.54153 152.50745 51.52976 152.50745H62.45142C64.439647 152.50745 66.051418 154.11923 66.051418 156.10746V167.15113C67.35378 165.45767 69.12072 165.74578 70.931407 165.74578V131.57596H68.9051C66.91688 131.57596 65.3051 129.96419 65.3051 127.97597V118.047199C65.3051 116.058979 66.91688 114.4472 68.9051 114.4472H94.968128C96.95635 114.4472 98.56812 116.058979 98.56812 118.047199V127.97597C98.56812 130.7684 96.23441 131.57596 93.85194 131.57596V138.27623H106.68852L107.8333 137.1021V122.34966C107.8333 121.394878 108.212589 120.4792 108.88772 119.80407L113.19019 115.50161C114.50623 114.18558 129.31552 114.4472 132.20098 114.4472 133.08625 114.4472 133.94048 114.773387 134.60044 115.36342 135.90732 114.194988 158.98795 114.4472 161.90448 114.4472 163.8927 114.4472 165.50449 116.058979 165.50449 118.047199V127.97597C165.50449 130.69806 163.25334 131.57596 160.90679 131.57596L161.72588 134.80117H176.27426L177.14455 131.57596H176.13571C174.14748 131.57596 172.5357 129.96419 172.5357 127.97597V118.047199C172.5357 116.058979 174.14748 114.4472 176.13571 114.4472H202.28144C203.37619 114.4472 204.41147 114.94535 205.09459 115.80083ZM172.02088 150.68883H165.80117L168.84192 162.52936 172.02088 150.68883ZM93.85194 165.74578H107.3772L107.8333 165.28969V156.35752L106.79803 155.32225H93.85194V165.74578Z" fill="#ff7f00" fill-rule="evenodd"/>
<path transform="matrix(1,0,0,-1,0,585.2503)" d="M339.42167 26.561083H327.757V60.730909H332.1827C334.17094 60.730909 335.7827 62.34268 335.7827 64.33091V74.259677C335.7827 76.247898 334.17094 77.85967 332.1827 77.85967H302.81019C300.82197 77.85967 299.21018 76.247898 299.21018 74.259677V64.33091C299.21018 61.0622 302.22267 60.730909 304.83647 60.730909V26.561083H302.81019C300.82197 26.561083 299.21018 24.949307 299.21018 22.961083V13.032326C299.21018 11.044101 300.82197 9.432326 302.81019 9.432326H354.19154C355.1463 9.432326 356.06199 9.811612 356.7371 10.486746L359.63298 13.38263C360.9612 14.710864 360.68739 32.88036 360.68739 35.868467 360.68739 37.85669 359.07563 39.468465 357.0874 39.468465H343.02165C341.03343 39.468465 339.42167 37.85669 339.42167 35.868467V26.561083Z" fill="#ff7f00" fill-rule="evenodd"/>
<path transform="matrix(1,0,0,-1,0,585.2503)" d="M269.58937 165.74578V131.57596H267.56309C265.57487 131.57596 263.96308 129.96419 263.96308 127.97597V118.047199C263.96308 116.058979 265.57487 114.4472 267.56309 114.4472H296.10829C298.0965 114.4472 299.70829 116.058979 299.70829 118.047199V127.97597C299.70829 132.33957 295.21653 131.57596 292.5099 131.57596V139.18636H308.51924C310.50746 139.18636 312.11924 140.79814 312.11924 142.78636V152.2187C312.11924 154.20693 310.50746 155.8187 308.51924 155.8187H292.5099V166.24225H304.0918V159.66526C304.0918 157.67704 305.70359 156.06526 307.6918 156.06526H319.68907C321.67729 156.06526 323.28907 157.67704 323.28907 159.66526V176.3787C323.28907 177.33348 322.90977 178.24916 322.23463 178.92429L319.3387 181.82016C317.96903 183.18982 270.90788 182.87456 267.56309 182.87456 265.57487 182.87456 263.96308 181.26279 263.96308 179.27457V169.34578C263.96308 166.07707 266.97557 165.74578 269.58937 165.74578Z" fill="#ff7f00" fill-rule="evenodd"/>
<path transform="matrix(1,0,0,-1,0,585.2503)" d="M352.08247 165.74578H354.026C356.01423 165.74578 357.626 167.35756 357.626 169.34578V179.27457C357.626 181.26279 356.01423 182.87456 354.026 182.87456H327.1356C325.14738 182.87456 323.53559 181.26279 323.53559 179.27457V169.34578C323.53559 166.07706 326.5481 165.74578 329.1619 165.74578V131.57596H327.1356C325.14738 131.57596 323.53559 129.96419 323.53559 127.97597V118.047199C323.53559 116.058979 325.14738 114.4472 327.1356 114.4472H354.026C356.01423 114.4472 357.626 116.058979 357.626 118.047199V127.97597C357.626 131.20502 354.67845 131.57596 352.08247 131.57596V165.74578Z" fill="#ff7f00" fill-rule="evenodd"/>
<path transform="matrix(1,0,0,-1,0,585.2503)" d="M399.90437 132.03209 399.44825 131.57596H382.98677L382.53065 132.03208V165.28969L382.98677 165.74578H399.4079V157.92772C399.4079 155.9395 401.01969 154.32773 403.0079 154.32773H416.82545C418.81367 154.32773 420.4254 155.9395 420.4254 157.92772V179.27457C420.4254 181.26279 418.81367 182.87456 416.82545 182.87456H406.15208C405.19734 182.87456 404.28166 182.49529 403.6065 181.82018L403.00794 181.2216 402.4094 181.82015C400.9936 183.23595 370.32475 183.22035 368.92585 181.80745L360.6519 173.45072C359.2527 172.0375 359.26884 125.1713 360.66453 123.77559L368.93849 115.50162C370.34437 114.09572 410.18766 114.095729 411.59355 115.501628L419.86747 123.7756C421.18284 125.09096 420.92189 139.74109 420.92189 142.62088 420.92189 144.6091 419.3101 146.22089 417.32188 146.22089H403.50437C401.51615 146.22089 399.90437 144.6091 399.90437 142.62088V132.03209Z" fill="#ff7f00" fill-rule="evenodd"/>
<path transform="matrix(1,0,0,-1,0,585.2503)" d="M1058.4293 131.07953H1045.3582V141.3376H1062.4431C1064.4313 141.3376 1066.0431 142.94937 1066.0431 144.9376V154.36992C1066.0431 155.64488 1065.3688 156.82476 1064.2702 157.47182H1073.6128C1075.6011 157.47182 1077.2128 159.0836 1077.2128 161.07183V176.3787C1077.2128 177.33347 1076.8335 178.24915 1076.1585 178.92427L1073.2626 181.82015C1071.8921 183.19052 1023.76229 182.87456 1020.4113 182.87456 1018.4231 182.87456 1016.81137 181.26279 1016.81137 179.27457V169.34578C1016.81137 166.07707 1019.8238 165.74578 1022.4376 165.74578V131.57596H1020.4113C1018.4231 131.57596 1016.81137 129.96419 1016.81137 127.97597V118.047199C1016.81137 116.058979 1018.4231 114.4472 1020.4113 114.4472H1071.1307C1072.0855 114.4472 1073.0012 114.826488 1073.6763 115.501628L1076.5722 118.397518C1077.8833 119.70859 1077.6266 133.40595 1077.6266 136.24994 1077.6266 138.23816 1076.0148 139.84995 1074.0266 139.84995H1062.0293C1057.3322 139.84995 1058.4293 133.84012 1058.4293 131.07953ZM1059.7886 157.96993H1045.3582V166.24225H1058.0156V161.07183C1058.0156 159.79686 1058.6901 158.61699 1059.7886 157.96993Z" fill="#ff7f00" fill-rule="evenodd"/>
<path transform="matrix(1,0,0,-1,0,585.2503)" d="M1083.9131 165.74578V131.57596H1081.887C1079.8987 131.57596 1078.287 129.96419 1078.287 127.97597V118.047199C1078.287 116.058979 1079.8987 114.4472 1081.887 114.4472H1107.95C1109.9382 114.4472 1111.5499 116.058979 1111.5499 118.047199V127.97597C1111.5499 130.7684 1109.2163 131.57596 1106.8338 131.57596V138.27623H1119.6703L1120.8152 137.10205V122.34966C1120.8152 121.39489 1121.1945 120.47922 1121.8695 119.80409L1126.172 115.50163C1127.488 114.18558 1142.2973 114.4472 1145.1828 114.4472 1147.1709 114.4472 1148.7827 116.058979 1148.7827 118.047199V127.97597C1148.7827 130.95316 1146.2112 131.57596 1143.7356 131.57596V140.05597C1143.7356 141.01073 1143.3563 141.92639 1142.6812 142.60153L1138.7732 146.50965 1142.6812 150.41777C1144.087 151.82369 1144.087 172.14034 1142.6812 173.5462L1134.4071 181.82016C1133.037 183.1903 1085.236 182.87456 1081.887 182.87456 1079.8987 182.87456 1078.287 181.26279 1078.287 179.27457V169.34578C1078.287 166.07715 1081.2993 165.74578 1083.9131 165.74578ZM1106.8338 165.74578H1120.359L1120.8152 165.2897V156.35755L1119.7798 155.32225H1106.8338V165.74578Z" fill="#ff7f00" fill-rule="evenodd"/>
<path transform="matrix(1,0,0,-1,0,585.2503)" d="M192.63632 54.444356 192.14667 54.94982V61.30886L208.9412 61.310079V58.62188C208.9412 56.633657 210.55297 55.02188 212.54119 55.02188H225.69678C227.685 55.02188 229.29677 56.633657 229.29677 58.62188V74.259677C229.29677 76.247898 227.685 77.85967 225.69678 77.85967H215.18885C214.23406 77.85967 213.31838 77.480388 212.64325 76.80525L212.54117 76.70317C211.8469 77.42452 210.8945 77.84053 209.8935 77.85967 206.76985 77.88954 180.19733 78.11708 178.8855 76.80526L170.61151 68.5313C169.20561 67.12542 169.20561 44.409318 170.61151 43.003427L178.8855 34.72946C180.22866 33.38631 204.34352 33.67505 207.45862 33.67505L207.94829 33.169576V26.024289L207.9059 25.981902H188.75434V29.497525C188.75434 31.485749 187.14257 33.097524 185.15435 33.097524H171.99872C170.01049 33.097524 168.39871 31.485749 168.39871 29.497525V13.032326C168.39871 11.044101 170.01049 9.432326 171.99872 9.432326H182.42395C183.35955 9.432326 184.2584 9.796571 184.93007 10.447892L185.07477 10.588205C185.76348 9.860836 186.71767 9.443775 187.71929 9.432326H218.66391C219.61869 9.432326 220.53435 9.811609 221.20949 10.486738L229.48348 18.760703C230.88938 20.16659 230.88938 43.71008 229.48348 45.115968L221.20949 53.389944C219.86634 54.733095 195.75144 54.444356 192.63632 54.444356Z" fill="#ff7f00" fill-rule="evenodd"/>
<path transform="matrix(1,0,0,-1,0,585.2503)" d="M296.17167 68.5313 287.8977 76.80526C286.4918 78.21114 244.08365 78.21114 242.67775 76.80526L234.4038 68.5313C232.99791 67.12541 232.99791 20.166596 234.4038 18.760708L242.67775 10.486743C244.08364 9.080854 286.4918 9.080854 287.8977 10.486743L296.17167 18.760708C297.57756 20.166596 297.57756 67.12541 296.17167 68.5313ZM256.726 60.730909H273.8494L274.30549 60.27482V27.017178L273.8494 26.561083H256.726L256.26994 27.017178V60.27482L256.726 60.730909Z" fill="#ff7f00" fill-rule="evenodd"/>
<path transform="matrix(1,0,0,-1,0,585.2503)" d="M594.5309 68.531299 586.25698 76.80525C584.8511 78.21114 542.4429 78.21114 541.037 76.80525L532.76309 68.531299C531.35726 67.12541 531.35726 20.166602 532.76309 18.760714L541.037 10.486749C542.4429 9.080852 584.8511 9.080852 586.25698 10.486749L594.5309 18.760714C595.93679 20.166602 595.93679 67.12541 594.5309 68.531299ZM555.0853 60.730909H572.2087L572.6648 60.27482V27.017178L572.2087 26.561083H555.0853L554.62918 27.017207V60.274789L555.0853 60.730909Z" fill="#ff7f00" fill-rule="evenodd"/>
<path transform="matrix(1,0,0,-1,0,585.2503)" d="M649.69546 60.730909V39.875566L634.21957 73.1309 633.2046 74.4231 629.8951 77.07078C628.6313 78.08187 603.92636 77.85967 601.16946 77.85967 599.1812 77.85967 597.56948 76.247898 597.56948 74.259677V64.33091C597.56948 61.0622 600.5819 60.730909 603.1957 60.730909V26.561083H601.16946C599.1812 26.561083 597.56948 24.949307 597.56948 22.961083V13.032326C597.56948 11.044101 599.1812 9.432326 601.16946 9.432326H624.9157C626.90396 9.432326 628.5157 11.044101 628.5157 13.032326V22.961083C628.5157 26.307438 625.3715 26.561083 622.72396 26.561083V48.227819L638.0342 15.319779 638.9385 14.119574 643.3236 10.313552C644.71847 9.102923 662.3232 9.157781 663.6551 10.364005L668.0402 14.33551C669.5704 15.721337 669.2236 57.2467 669.2236 60.730909H671.33267C673.3209 60.730909 674.9327 62.34268 674.9327 64.33091V74.259677C674.9327 76.247898 673.3209 77.85967 671.33267 77.85967H648.1655C646.1773 77.85967 644.5655 76.247898 644.5655 74.259677V64.33091C644.5655 61.30986 647.1981 60.730909 649.69546 60.730909Z" fill="#ff7f00" fill-rule="evenodd"/>
<path transform="matrix(1,0,0,-1,0,585.2503)" d="M699.4168 54.444356 698.9272 54.94982V61.30888L715.7217 61.310079V58.62188C715.7217 56.633657 717.33346 55.02188 719.32168 55.02188H732.47726C734.46548 55.02188 736.0772 56.633657 736.0772 58.62188V74.259677C736.0772 76.247898 734.46548 77.85967 732.47726 77.85967H721.9693C721.0145 77.85967 720.0988 77.480388 719.4237 76.80525L719.32168 76.70319C718.6274 77.42453 717.675 77.84053 716.674 77.85967 713.55038 77.889537 686.9778 78.117099 685.66598 76.80526L677.39199 68.5313C675.9861 67.12542 675.9861 44.409318 677.39199 43.003427L685.66598 34.72946C687.0091 33.38631 711.124 33.67505 714.23916 33.67505L714.7288 33.169546V26.024323L714.6864 25.981902H695.53488V29.497525C695.53488 31.485749 693.92306 33.097524 691.9348 33.097524H678.77926C676.791 33.097524 675.17929 31.485749 675.17929 29.497525V13.032326C675.17929 11.044101 676.791 9.432326 678.77926 9.432326H689.20449C690.1401 9.432326 691.0389 9.796571 691.7106 10.447892L691.8553 10.588188C692.54397 9.860823 693.4981 9.443768 694.49978 9.432326H725.44448C726.39926 9.432326 727.3149 9.811613 727.99008 10.486749L736.264 18.760714C737.6698 20.166598 737.6698 43.710069 736.264 45.115957L727.99008 53.38993C726.64688 54.733095 702.5319 54.444356 699.4168 54.444356Z" fill="#ff7f00" fill-rule="evenodd"/>
<path transform="matrix(1,0,0,-1,0,585.2503)" d="M743.56417 10.755383 742.41799 4.22209C742.0744 2.263775 743.38339 .397728 745.3417 .054157 745.5471 .01812 745.75527 0 745.9638 0H754.3206C756.06887 0 757.56436 1.256 757.86648 2.977936L759.5754 13.032326V26.849846C759.5754 28.83807 757.96359 30.449845 755.97537 30.449845H743.39889C741.41067 30.449845 739.7989 28.83807 739.7989 26.849846V14.687117C739.7989 13.206153 740.7058 11.876291 742.0846 11.335612L743.56417 10.755383Z" fill="#ff7f00" fill-rule="evenodd"/>
<path transform="matrix(1,0,0,-1,0,585.2503)" d="M835.0322 26.561083H823.3677V60.730909H827.7934C829.7816 60.730909 831.39346 62.34268 831.39346 64.33091V74.259677C831.39346 76.247898 829.7816 77.85967 827.7934 77.85967H798.42086C796.43258 77.85967 794.8208 76.247898 794.8208 74.259677V64.33091C794.8208 61.0622 797.83328 60.730909 800.4471 60.730909V26.561083H798.42086C796.43258 26.561083 794.8208 24.949307 794.8208 22.961083V13.032326C794.8208 11.044101 796.43258 9.432326 798.42086 9.432326H849.8021C850.7569 9.432326 851.67257 9.811612 852.3477 10.486746L855.2436 13.38263C856.5718 14.710864 856.298 32.88036 856.298 35.868467 856.298 37.85669 854.6862 39.468465 852.698 39.468465H838.63229C836.64407 39.468465 835.0322 37.85669 835.0322 35.868467V26.561083Z" fill="#ff7f00" fill-rule="evenodd"/>
<path transform="matrix(1,0,0,-1,0,585.2503)" d="M959.9692 27.017207 959.51309 26.561083H943.0516L942.5954 27.017207V60.274789L943.0516 60.730909H959.4727V52.912836C959.4727 50.92461 961.08456 49.312837 963.07278 49.312837H976.8902C978.8784 49.312837 980.4902 50.92461 980.4902 52.912836V74.259677C980.4902 76.247898 978.8784 77.85967 976.8902 77.85967H966.2169C965.26217 77.85967 964.3465 77.4804 963.6713 76.80528L963.07278 76.20671 962.47427 76.80525C961.0584 78.221057 930.3896 78.20545 928.9907 76.79256L920.7168 68.43586C919.31759 67.02266 919.3337 20.156424 920.72946 18.760714L929.00338 10.486749C930.40927 9.080852 970.2525 9.080852 971.6584 10.486749L979.9323 18.760714C981.2476 20.07607 980.9867 34.726217 980.9867 37.606008 980.9867 39.59423 979.37496 41.206007 977.3867 41.206007H963.56918C961.58096 41.206007 959.9692 39.59423 959.9692 37.606008V27.017207Z" fill="#ff7f00" fill-rule="evenodd"/>
<path transform="matrix(1,0,0,-1,0,585.2503)" d="M896.6733 26.561083H885.00869V60.730909H889.43447C891.42269 60.730909 893.0344 62.34268 893.0344 64.33091V74.259677C893.0344 76.247898 891.42269 77.85967 889.43447 77.85967H860.0618C858.0736 77.85967 856.46188 76.247898 856.46188 74.259677V64.33091C856.46188 61.062166 859.47439 60.730909 862.0882 60.730909V26.561083H860.0618C858.0736 26.561083 856.46188 24.949307 856.46188 22.961083V13.032326C856.46188 11.044101 858.0736 9.432326 860.0618 9.432326H911.4432C912.398 9.432326 913.31369 9.811612 913.9888 10.486746L916.88467 13.38263C918.2129 14.710864 917.9391 32.88036 917.9391 35.868467 917.9391 37.85669 916.32736 39.468465 914.33908 39.468465H900.27328C898.28506 39.468465 896.6733 37.85669 896.6733 35.868467V26.561083Z" fill="#ff7f00" fill-rule="evenodd"/>
<path transform="matrix(1,0,0,-1,0,585.2503)" d="M62.45142 176.3787V156.10746H51.52976V168.84935H40.939096V127.97597H49.13033V118.047199H17.110072V127.97597H25.218562V168.84935H14.545142V156.10746H3.623517V176.3787L6.519411 179.27457H59.555528L62.45142 176.3787Z"/>
<path transform="matrix(1,0,0,-1,0,585.2503)" d="M127.15387 171.00061V152.96334L120.70015 146.50965 127.15387 140.05597V127.97597H132.20098V118.047199H115.73577L111.4333 122.34966V138.56664L108.20645 141.87622H90.25194V127.97597H94.968128V118.047199H68.9051V127.97597H74.5314V169.34578H68.9051V179.27457H118.879878L127.15387 171.00061ZM90.25194 169.34578V151.72225H108.28919L111.4333 154.86635V166.78087L108.86835 169.34578H90.25194Z"/>
<path transform="matrix(1,0,0,-1,0,585.2503)" d="M202.28144 127.97597V118.047199H176.13571V127.97597H181.84476L179.03159 138.40116H158.92586L156.27822 127.97597H161.90448V118.047199H136.99988V127.97597H141.71602L154.3752 173.81374 159.83602 179.27457H179.52806L184.98889 173.89649 197.97899 127.97597H202.28144ZM176.71489 147.08882 171.00589 168.35292H166.62064L161.15985 147.08882H176.71489Z"/>
<path transform="matrix(1,0,0,-1,0,585.2503)" d="M260.03373 176.3787V159.66526H248.03647V169.84224H229.25458V152.2187H248.86389V142.78636H229.25458V127.97597H236.45294V118.047199H207.90775V127.97597H213.53404V169.34578H207.90775V179.27457H257.13786L260.03373 176.3787Z"/>
<path transform="matrix(1,0,0,-1,0,585.2503)" d="M319.68907 176.3787V159.66526H307.6918V169.84224H288.90989V152.2187H308.51924V142.78636H288.90989V127.97597H296.10829V118.047199H267.56309V127.97597H273.18934V169.34578H267.56309V179.27457H316.79316L319.68907 176.3787Z"/>
<path transform="matrix(1,0,0,-1,0,585.2503)" d="M348.48249 169.34578V127.97597H354.026V118.047199H327.1356V127.97597H332.7619V169.34578H327.1356V179.27457H354.026V169.34578H348.48249Z"/>
<path transform="matrix(1,0,0,-1,0,585.2503)" d="M417.32188 126.321178 409.04795 118.047199H371.48408L363.2101 126.321178V170.91783L371.48408 179.27457H399.8638L403.0079 176.13045 406.15208 179.27457H416.82545V157.92772H403.0079V169.34578H381.49559L378.93064 166.78087V130.5409L381.49559 127.97597H400.93937L403.50437 130.5409V142.62088H417.32188V126.321178Z"/>
<path transform="matrix(1,0,0,-1,0,585.2503)" d="M840.28707 127.97597V118.047199H814.1413V127.97597H819.8504L817.0372 138.40116H796.93148L794.2838 127.97597H799.9101V118.047199H775.00546V127.97597H779.7216L792.38088 173.81374 797.8416 179.27457H817.5336L822.9945 173.89649 835.9846 127.97597H840.28707ZM814.7206 147.08882 809.0114 168.35292H804.6263L799.1654 147.08882H814.7206Z"/>
<path transform="matrix(1,0,0,-1,0,585.2503)" d="M767.80709 155.69374 761.3534 149.24007 767.80709 142.78636V126.321178L759.53317 118.047199H708.8965V127.97597H714.52279V169.34578H708.8965V179.27457H759.53317L767.80709 171.00061V155.69374ZM752.0866 167.2773 749.4389 169.84224H730.2433V154.03897H748.8597L752.0866 157.18308V167.2773ZM752.0866 141.87622 748.8597 145.10309H730.2433V127.47953H749.4389L752.0866 130.04447V141.87622Z"/>
<path transform="matrix(1,0,0,-1,0,585.2503)" d="M666.1201 171.00061V126.321178L657.8461 118.047199H604.81V127.97597H610.3535V169.34578H604.81V179.27457H657.8461L666.1201 171.00061ZM650.39956 166.78087 647.83468 169.34578H626.0741V127.97597H647.83468L650.39956 130.5409V166.78087Z"/>
<path transform="matrix(1,0,0,-1,0,585.2503)" d="M598.77 169.34578H593.0609V122.018718L588.6757 118.047199H573.12069L568.7355 121.85323 547.1404 168.2702H546.5612V127.97597H552.353V118.047199H528.6067V127.97597H534.23306V169.34578H528.6067V179.27457H555.08346L558.393 176.62688 580.0708 130.04447H580.7327V169.34578H575.60287V179.27457H598.77V169.34578Z"/>
<path transform="matrix(1,0,0,-1,0,585.2503)" d="M522.9804 127.97597V118.047199H496.83467V127.97597H502.54377L499.73063 138.40116H479.62483L476.97718 127.97597H482.60346V118.047199H457.69889V127.97597H462.41499L475.0742 173.81374 480.53498 179.27457H500.227L505.68785 173.89649 518.67807 127.97597H522.9804ZM497.41395 147.08882 491.70484 168.35292H487.31965L481.85887 147.08882H497.41395Z"/>
<path transform="matrix(1,0,0,-1,0,585.2503)" d="M904.16207 171.00061V152.96334L897.7084 146.50965 904.16207 140.05597V127.97597H909.20919V118.047199H892.74398L888.44149 122.34966V138.56664L885.2147 141.87622H867.2602V127.97597H871.9764V118.047199H845.9134V127.97597H851.5396V169.34578H845.9134V179.27457H895.8881L904.16207 171.00061ZM867.2602 169.34578V151.72225H885.2974L888.44149 154.86635V166.78087L885.8767 169.34578H867.2602Z"/>
<path transform="matrix(1,0,0,-1,0,585.2503)" d="M974.2426 171.00061V152.96334L967.78897 146.50965 974.2426 140.05597V127.97597H979.28976V118.047199H962.8245L958.52206 122.34966V138.56664L955.2953 141.87622H937.3407V127.97597H942.0569V118.047199H915.99386V127.97597H921.6202V169.34578H915.99386V179.27457H965.9686L974.2426 171.00061ZM937.3407 169.34578V151.72225H955.37789L958.52206 154.86635V166.78087L955.9571 169.34578H937.3407Z"/>
<path transform="matrix(1,0,0,-1,0,585.2503)" d="M1007.3385 169.34578V127.97597H1012.8821V118.047199H985.99166V127.97597H991.61788V169.34578H985.99166V179.27457H1012.8821V169.34578H1007.3385Z"/>
<path transform="matrix(1,0,0,-1,0,585.2503)" d="M1074.0266 136.24994V120.94309L1071.1307 118.047199H1020.4113V127.97597H1026.0376V169.34578H1020.4113V179.27457H1070.7169L1073.6128 176.3787V161.07183H1061.6157V169.84224H1041.7582V154.36992H1062.4431V144.9376H1041.7582V127.47953H1062.0293V136.24994H1074.0266Z"/>
<path transform="matrix(1,0,0,-1,0,585.2503)" d="M1140.1356 171.00061V152.96334L1133.682 146.50965 1140.1356 140.05597V127.97597H1145.1828V118.047199H1128.7175L1124.4152 122.34966V138.56664L1121.1881 141.87622H1103.2338V127.97597H1107.95V118.047199H1081.887V127.97597H1087.5131V169.34578H1081.887V179.27457H1131.8616L1140.1356 171.00061ZM1103.2338 169.34578V151.72225H1121.271L1124.4152 154.86635V166.78087L1121.8502 169.34578H1103.2338Z"/>
<path transform="matrix(1,0,0,-1,0,585.2503)" d="M226.9379 21.306292 218.66391 13.032326H187.71929L185.15435 15.679996 182.42395 13.032326H171.99872V29.497525H185.15435V22.381903H209.39708L211.5483 24.533133V34.627374L208.98339 37.27505H181.43108L173.15709 45.549016V65.98572L181.43108 74.259677H209.8935L212.54119 71.612 215.18885 74.259677H225.69678V58.62188H212.54119V64.91008H190.61516L188.54666 62.758859V53.492025L191.11157 50.844354H218.66391L226.9379 42.57038V21.306292Z"/>
<path transform="matrix(1,0,0,-1,0,585.2503)" d="M293.62608 65.98572V21.306292L285.3521 13.032326H245.22335L236.94939 21.306292V65.98572L245.22335 74.259677H285.3521L293.62608 65.98572ZM255.23484 64.33091 252.66992 61.76598V25.52602L255.23484 22.961083H275.34059L277.9055 25.52602V61.76598L275.34059 64.33091H255.23484Z"/>
<path transform="matrix(1,0,0,-1,0,585.2503)" d="M357.0874 35.868467V15.928211L354.19154 13.032326H302.81019V22.961083H308.43644V64.33091H302.81019V74.259677H332.1827V64.33091H324.15699V22.961083H343.02165V35.868467H357.0874Z"/>
<path transform="matrix(1,0,0,-1,0,585.2503)" d="M428.32627 64.33091H422.86543V21.306292L414.5914 13.032326H377.44136L369.16734 21.306292V64.33091H363.6238V74.259677H390.0178V64.33091H384.8879V25.52602L387.4528 22.961083H406.64848L409.21339 25.52602V64.33091H404.08357V74.259677H428.32627V64.33091Z"/>
<path transform="matrix(1,0,0,-1,0,585.2503)" d="M492.86317 71.3638V51.092569H481.9415V63.834478H471.3509V22.961083H479.54216V13.032326H447.5219V22.961083H455.63035V63.834478H444.9569V51.092569H434.03529V71.3638L436.93116 74.259677H489.9673L492.86317 71.3638Z"/>
<path transform="matrix(1,0,0,-1,0,585.2503)" d="M520.581 64.33091V22.961083H526.1245V13.032326H499.23417V22.961083H504.86045V64.33091H499.23417V74.259677H526.1245V64.33091H520.581Z"/>
<path transform="matrix(1,0,0,-1,0,585.2503)" d="M591.9853 65.98572V21.306292L583.71139 13.032326H543.5826L535.30868 21.306292V65.98572L543.5826 74.259677H583.71139L591.9853 65.98572ZM553.5942 64.33091 551.0292 61.76598V25.52602L553.5942 22.961083H573.6999L576.2648 25.52602V61.76598L573.6999 64.33091H553.5942Z"/>
<path transform="matrix(1,0,0,-1,0,585.2503)" d="M671.33267 64.33091H665.6236V17.00383L661.23849 13.032326H645.68338L641.2982 16.838349 619.70309 63.255308H619.12399V22.961083H624.9157V13.032326H601.16946V22.961083H606.7957V64.33091H601.16946V74.259677H627.6462L630.9557 71.612 652.6335 25.029572H653.2954V64.33091H648.1655V74.259677H671.33267V64.33091Z"/>
<path transform="matrix(1,0,0,-1,0,585.2503)" d="M733.7184 21.306292 725.44448 13.032326H694.49978L691.9348 15.679996 689.20449 13.032326H678.77926V29.497525H691.9348V22.381903H716.17758L718.32888 24.533133V34.627374L715.76388 37.27505H688.21157L679.93759 45.549016V65.98572L688.21157 74.259677H716.674L719.32168 71.612 721.9693 74.259677H732.47726V58.62188H719.32168V64.91008H697.3956L695.32717 62.758859V53.492025L697.8921 50.844354H725.44448L733.7184 42.57038V21.306292Z"/>
<path transform="matrix(1,0,0,-1,0,585.2503)" d="M755.97537 13.032326 754.3206 3.6H745.9638L747.6186 13.032326 743.39889 14.687117V26.849846H755.97537V13.032326Z"/>
<path transform="matrix(1,0,0,-1,0,585.2503)" d="M852.698 35.868467V15.928211L849.8021 13.032326H798.42086V22.961083H804.04708V64.33091H798.42086V74.259677H827.7934V64.33091H819.76766V22.961083H838.63229V35.868467H852.698Z"/>
<path transform="matrix(1,0,0,-1,0,585.2503)" d="M977.3867 21.306292 969.1128 13.032326H931.54898L923.275 21.306292V65.90298L931.54898 74.259677H959.92868L963.07278 71.115558 966.2169 74.259677H976.8902V52.912836H963.07278V64.33091H941.5604L938.9954 61.76598V25.52602L941.5604 22.961083H961.0042L963.56918 25.52602V37.606008H977.3867V21.306292Z"/>
<path transform="matrix(1,0,0,-1,0,585.2503)" d="M914.33908 35.868467V15.928211L911.4432 13.032326H860.0618V22.961083H865.6882V64.33091H860.0618V74.259677H889.43447V64.33091H881.4087V22.961083H900.27328V35.868467H914.33908Z"/>
</g>
</svg>
